<mxfile host="app.diagrams.net" modified="2023-01-12T12:30:51.740Z" agent="5.0 (Macintosh; Intel Mac OS X 10_15_5) AppleWebKit/537.36 (KHTML, like Gecko) Chrome/108.0.0.0 Safari/537.36" etag="rL_KjVAvJY1pugKceL87" version="20.8.4" type="github">
  <diagram id="C5RBs43oDa-KdzZeNtuy" name="Page-1">
    <mxGraphModel dx="1912" dy="1209" grid="1" gridSize="10" guides="1" tooltips="1" connect="1" arrows="1" fold="1" page="1" pageScale="1" pageWidth="827" pageHeight="1169" math="0" shadow="0">
      <root>
        <mxCell id="WIyWlLk6GJQsqaUBKTNV-0" />
        <mxCell id="WIyWlLk6GJQsqaUBKTNV-1" parent="WIyWlLk6GJQsqaUBKTNV-0" />
        <mxCell id="WIyWlLk6GJQsqaUBKTNV-2" value="" style="rounded=0;html=1;jettySize=auto;orthogonalLoop=1;fontSize=11;endArrow=block;endFill=0;endSize=8;strokeWidth=1;shadow=0;labelBackgroundColor=none;edgeStyle=orthogonalEdgeStyle;" parent="WIyWlLk6GJQsqaUBKTNV-1" edge="1">
          <mxGeometry relative="1" as="geometry">
            <mxPoint x="190" y="70" as="sourcePoint" />
            <mxPoint x="190" y="107" as="targetPoint" />
          </mxGeometry>
        </mxCell>
        <mxCell id="WIyWlLk6GJQsqaUBKTNV-3" value="Customer accesses Bofa website&amp;nbsp;" style="rounded=1;whiteSpace=wrap;html=1;fontSize=12;glass=0;strokeWidth=1;shadow=0;" parent="WIyWlLk6GJQsqaUBKTNV-1" vertex="1">
          <mxGeometry x="130" y="20" width="130" height="50" as="geometry" />
        </mxCell>
        <mxCell id="WIyWlLk6GJQsqaUBKTNV-4" value="Yes" style="rounded=0;html=1;jettySize=auto;orthogonalLoop=1;fontSize=11;endArrow=block;endFill=0;endSize=8;strokeWidth=1;shadow=0;labelBackgroundColor=none;edgeStyle=orthogonalEdgeStyle;entryX=0.5;entryY=0;entryDx=0;entryDy=0;" parent="WIyWlLk6GJQsqaUBKTNV-1" source="WIyWlLk6GJQsqaUBKTNV-6" edge="1">
          <mxGeometry y="20" relative="1" as="geometry">
            <mxPoint as="offset" />
            <mxPoint x="190" y="370" as="targetPoint" />
          </mxGeometry>
        </mxCell>
        <mxCell id="WIyWlLk6GJQsqaUBKTNV-6" value="Is &lt;br&gt;login credentials&lt;br&gt;are correct?" style="rhombus;whiteSpace=wrap;html=1;shadow=0;fontFamily=Helvetica;fontSize=12;align=center;strokeWidth=1;spacing=6;spacingTop=-4;" parent="WIyWlLk6GJQsqaUBKTNV-1" vertex="1">
          <mxGeometry x="127.5" y="240" width="125" height="90" as="geometry" />
        </mxCell>
        <mxCell id="WIyWlLk6GJQsqaUBKTNV-7" value="Lock user account for 24 hours" style="rounded=1;whiteSpace=wrap;html=1;fontSize=12;glass=0;strokeWidth=1;shadow=0;" parent="WIyWlLk6GJQsqaUBKTNV-1" vertex="1">
          <mxGeometry x="500" y="265" width="120" height="40" as="geometry" />
        </mxCell>
        <mxCell id="WIyWlLk6GJQsqaUBKTNV-11" value="Customer chooses &quot;Transfer funds&quot; option" style="rounded=1;whiteSpace=wrap;html=1;fontSize=12;glass=0;strokeWidth=1;shadow=0;" parent="WIyWlLk6GJQsqaUBKTNV-1" vertex="1">
          <mxGeometry x="135" y="470" width="125" height="50" as="geometry" />
        </mxCell>
        <mxCell id="WIyWlLk6GJQsqaUBKTNV-12" value="Replace Bulb" style="rounded=1;whiteSpace=wrap;html=1;fontSize=12;glass=0;strokeWidth=1;shadow=0;" parent="WIyWlLk6GJQsqaUBKTNV-1" vertex="1">
          <mxGeometry x="460" y="390" width="120" height="40" as="geometry" />
        </mxCell>
        <mxCell id="V0wX_VRdvDDfQWeRpgun-2" value="Is more than max attempt?" style="rhombus;whiteSpace=wrap;html=1;shadow=0;fontFamily=Helvetica;fontSize=12;align=center;strokeWidth=1;spacing=6;spacingTop=-4;" vertex="1" parent="WIyWlLk6GJQsqaUBKTNV-1">
          <mxGeometry x="300" y="228.75" width="130" height="112.5" as="geometry" />
        </mxCell>
        <mxCell id="V0wX_VRdvDDfQWeRpgun-5" value="System displays login page" style="rounded=1;whiteSpace=wrap;html=1;fontSize=12;glass=0;strokeWidth=1;shadow=0;" vertex="1" parent="WIyWlLk6GJQsqaUBKTNV-1">
          <mxGeometry x="130" y="110" width="120" height="40" as="geometry" />
        </mxCell>
        <mxCell id="V0wX_VRdvDDfQWeRpgun-6" value="Customer enters login credentials" style="rounded=1;whiteSpace=wrap;html=1;fontSize=12;glass=0;strokeWidth=1;shadow=0;" vertex="1" parent="WIyWlLk6GJQsqaUBKTNV-1">
          <mxGeometry x="130" y="180" width="120" height="40" as="geometry" />
        </mxCell>
        <mxCell id="V0wX_VRdvDDfQWeRpgun-7" value="" style="rounded=0;html=1;jettySize=auto;orthogonalLoop=1;fontSize=11;endArrow=block;endFill=0;endSize=8;strokeWidth=1;shadow=0;labelBackgroundColor=none;edgeStyle=orthogonalEdgeStyle;exitX=0.5;exitY=1;exitDx=0;exitDy=0;entryX=0.5;entryY=0;entryDx=0;entryDy=0;" edge="1" parent="WIyWlLk6GJQsqaUBKTNV-1" source="V0wX_VRdvDDfQWeRpgun-5" target="V0wX_VRdvDDfQWeRpgun-6">
          <mxGeometry relative="1" as="geometry">
            <mxPoint x="192" y="150" as="sourcePoint" />
            <mxPoint x="190" y="150" as="targetPoint" />
          </mxGeometry>
        </mxCell>
        <mxCell id="V0wX_VRdvDDfQWeRpgun-13" value="" style="rounded=0;html=1;jettySize=auto;orthogonalLoop=1;fontSize=11;endArrow=block;endFill=0;endSize=8;strokeWidth=1;shadow=0;labelBackgroundColor=none;edgeStyle=orthogonalEdgeStyle;exitX=0.5;exitY=1;exitDx=0;exitDy=0;" edge="1" parent="WIyWlLk6GJQsqaUBKTNV-1" source="V0wX_VRdvDDfQWeRpgun-6">
          <mxGeometry relative="1" as="geometry">
            <mxPoint x="200" y="140" as="sourcePoint" />
            <mxPoint x="190" y="240" as="targetPoint" />
          </mxGeometry>
        </mxCell>
        <mxCell id="V0wX_VRdvDDfQWeRpgun-14" value="No" style="rounded=0;html=1;jettySize=auto;orthogonalLoop=1;fontSize=11;endArrow=block;endFill=0;endSize=8;strokeWidth=1;shadow=0;labelBackgroundColor=none;edgeStyle=orthogonalEdgeStyle;exitX=1;exitY=0.5;exitDx=0;exitDy=0;verticalAlign=top;" edge="1" parent="WIyWlLk6GJQsqaUBKTNV-1" source="WIyWlLk6GJQsqaUBKTNV-6" target="V0wX_VRdvDDfQWeRpgun-2">
          <mxGeometry relative="1" as="geometry">
            <mxPoint x="264" y="140" as="sourcePoint" />
            <mxPoint x="264" y="180" as="targetPoint" />
            <Array as="points" />
          </mxGeometry>
        </mxCell>
        <mxCell id="V0wX_VRdvDDfQWeRpgun-15" value="Yes" style="rounded=0;html=1;jettySize=auto;orthogonalLoop=1;fontSize=11;endArrow=block;endFill=0;endSize=8;strokeWidth=1;shadow=0;labelBackgroundColor=none;edgeStyle=orthogonalEdgeStyle;exitX=1;exitY=0.5;exitDx=0;exitDy=0;entryX=0;entryY=0.5;entryDx=0;entryDy=0;verticalAlign=top;" edge="1" parent="WIyWlLk6GJQsqaUBKTNV-1" source="V0wX_VRdvDDfQWeRpgun-2" target="WIyWlLk6GJQsqaUBKTNV-7">
          <mxGeometry relative="1" as="geometry">
            <mxPoint x="210" y="150" as="sourcePoint" />
            <mxPoint x="560" y="280" as="targetPoint" />
          </mxGeometry>
        </mxCell>
        <mxCell id="V0wX_VRdvDDfQWeRpgun-16" value="No" style="rounded=0;html=1;jettySize=auto;orthogonalLoop=1;fontSize=11;endArrow=block;endFill=0;endSize=8;strokeWidth=1;shadow=0;labelBackgroundColor=none;edgeStyle=orthogonalEdgeStyle;entryX=1;entryY=0.5;entryDx=0;entryDy=0;verticalAlign=bottom;exitX=0.5;exitY=0;exitDx=0;exitDy=0;" edge="1" parent="WIyWlLk6GJQsqaUBKTNV-1" source="V0wX_VRdvDDfQWeRpgun-2" target="V0wX_VRdvDDfQWeRpgun-5">
          <mxGeometry x="-0.7352" y="-10" relative="1" as="geometry">
            <mxPoint x="360" y="229" as="sourcePoint" />
            <mxPoint x="220" y="200" as="targetPoint" />
            <Array as="points">
              <mxPoint x="365" y="130" />
            </Array>
            <mxPoint as="offset" />
          </mxGeometry>
        </mxCell>
        <mxCell id="V0wX_VRdvDDfQWeRpgun-17" value="" style="rounded=0;html=1;jettySize=auto;orthogonalLoop=1;fontSize=11;endArrow=block;endFill=0;endSize=8;strokeWidth=1;shadow=0;labelBackgroundColor=none;edgeStyle=orthogonalEdgeStyle;entryX=0.5;entryY=1;entryDx=0;entryDy=0;exitX=0.5;exitY=0;exitDx=0;exitDy=0;" edge="1" parent="WIyWlLk6GJQsqaUBKTNV-1" source="WIyWlLk6GJQsqaUBKTNV-7" target="V0wX_VRdvDDfQWeRpgun-18">
          <mxGeometry relative="1" as="geometry">
            <mxPoint x="560" y="260" as="sourcePoint" />
            <mxPoint x="620" y="140" as="targetPoint" />
            <Array as="points" />
          </mxGeometry>
        </mxCell>
        <mxCell id="V0wX_VRdvDDfQWeRpgun-18" value="System redirects to login page with error message" style="rounded=1;whiteSpace=wrap;html=1;fontSize=12;glass=0;strokeWidth=1;shadow=0;" vertex="1" parent="WIyWlLk6GJQsqaUBKTNV-1">
          <mxGeometry x="500" y="140" width="120" height="40" as="geometry" />
        </mxCell>
        <mxCell id="V0wX_VRdvDDfQWeRpgun-22" value="System presents menu with different options" style="rounded=1;whiteSpace=wrap;html=1;fontSize=12;glass=0;strokeWidth=1;shadow=0;" vertex="1" parent="WIyWlLk6GJQsqaUBKTNV-1">
          <mxGeometry x="135" y="370" width="120" height="50" as="geometry" />
        </mxCell>
        <mxCell id="V0wX_VRdvDDfQWeRpgun-25" value="" style="rounded=0;html=1;jettySize=auto;orthogonalLoop=1;fontSize=11;endArrow=block;endFill=0;endSize=8;strokeWidth=1;shadow=0;labelBackgroundColor=none;edgeStyle=orthogonalEdgeStyle;exitX=0.5;exitY=1;exitDx=0;exitDy=0;" edge="1" parent="WIyWlLk6GJQsqaUBKTNV-1" source="V0wX_VRdvDDfQWeRpgun-22">
          <mxGeometry y="20" relative="1" as="geometry">
            <mxPoint as="offset" />
            <mxPoint x="200" y="340" as="sourcePoint" />
            <mxPoint x="195" y="470" as="targetPoint" />
          </mxGeometry>
        </mxCell>
        <mxCell id="V0wX_VRdvDDfQWeRpgun-30" value="System prompts to choose &quot;Transfer to my accounts&quot; or &quot;transfer to other accounts&quot;" style="rounded=1;whiteSpace=wrap;html=1;fontSize=12;glass=0;strokeWidth=1;shadow=0;" vertex="1" parent="WIyWlLk6GJQsqaUBKTNV-1">
          <mxGeometry x="358.5" y="459.5" width="141.5" height="71" as="geometry" />
        </mxCell>
        <mxCell id="V0wX_VRdvDDfQWeRpgun-34" value="" style="rounded=0;html=1;jettySize=auto;orthogonalLoop=1;fontSize=11;endArrow=block;endFill=0;endSize=8;strokeWidth=1;shadow=0;labelBackgroundColor=none;edgeStyle=orthogonalEdgeStyle;exitX=1;exitY=0.5;exitDx=0;exitDy=0;entryX=0;entryY=0.5;entryDx=0;entryDy=0;" edge="1" parent="WIyWlLk6GJQsqaUBKTNV-1" source="WIyWlLk6GJQsqaUBKTNV-11" target="V0wX_VRdvDDfQWeRpgun-30">
          <mxGeometry y="20" relative="1" as="geometry">
            <mxPoint as="offset" />
            <mxPoint x="189.5" y="520" as="sourcePoint" />
            <mxPoint x="390" y="520" as="targetPoint" />
          </mxGeometry>
        </mxCell>
        <mxCell id="V0wX_VRdvDDfQWeRpgun-38" value="" style="rounded=0;html=1;jettySize=auto;orthogonalLoop=1;fontSize=11;endArrow=block;endFill=0;endSize=8;strokeWidth=1;shadow=0;labelBackgroundColor=none;edgeStyle=orthogonalEdgeStyle;exitX=0.5;exitY=1;exitDx=0;exitDy=0;entryX=0.5;entryY=0;entryDx=0;entryDy=0;" edge="1" parent="WIyWlLk6GJQsqaUBKTNV-1" source="V0wX_VRdvDDfQWeRpgun-30" target="V0wX_VRdvDDfQWeRpgun-39">
          <mxGeometry y="20" relative="1" as="geometry">
            <mxPoint as="offset" />
            <mxPoint x="205" y="430" as="sourcePoint" />
            <mxPoint x="195" y="690" as="targetPoint" />
          </mxGeometry>
        </mxCell>
        <mxCell id="V0wX_VRdvDDfQWeRpgun-41" style="edgeStyle=orthogonalEdgeStyle;rounded=0;orthogonalLoop=1;jettySize=auto;html=1;endArrow=block;endFill=0;exitX=0.5;exitY=1;exitDx=0;exitDy=0;entryX=0.5;entryY=0;entryDx=0;entryDy=0;" edge="1" parent="WIyWlLk6GJQsqaUBKTNV-1" source="V0wX_VRdvDDfQWeRpgun-39" target="V0wX_VRdvDDfQWeRpgun-43">
          <mxGeometry relative="1" as="geometry">
            <mxPoint x="429" y="680" as="targetPoint" />
          </mxGeometry>
        </mxCell>
        <mxCell id="V0wX_VRdvDDfQWeRpgun-68" style="edgeStyle=orthogonalEdgeStyle;rounded=0;orthogonalLoop=1;jettySize=auto;html=1;endArrow=block;endFill=0;exitX=1;exitY=0.5;exitDx=0;exitDy=0;" edge="1" parent="WIyWlLk6GJQsqaUBKTNV-1" source="V0wX_VRdvDDfQWeRpgun-39">
          <mxGeometry relative="1" as="geometry">
            <mxPoint x="360" y="620" as="targetPoint" />
          </mxGeometry>
        </mxCell>
        <mxCell id="V0wX_VRdvDDfQWeRpgun-39" value="Customer chooses &quot;Transfer to my accounts&quot;" style="rounded=1;whiteSpace=wrap;html=1;fontSize=12;glass=0;strokeWidth=1;shadow=0;" vertex="1" parent="WIyWlLk6GJQsqaUBKTNV-1">
          <mxGeometry x="135" y="584" width="145" height="71" as="geometry" />
        </mxCell>
        <mxCell id="V0wX_VRdvDDfQWeRpgun-48" style="edgeStyle=orthogonalEdgeStyle;rounded=0;orthogonalLoop=1;jettySize=auto;html=1;exitX=1;exitY=0.5;exitDx=0;exitDy=0;endArrow=block;endFill=0;dashed=1;dashPattern=8 8;entryX=0;entryY=0.5;entryDx=0;entryDy=0;" edge="1" parent="WIyWlLk6GJQsqaUBKTNV-1" source="V0wX_VRdvDDfQWeRpgun-42" target="V0wX_VRdvDDfQWeRpgun-50">
          <mxGeometry relative="1" as="geometry">
            <mxPoint x="530" y="725.5238095238094" as="targetPoint" />
          </mxGeometry>
        </mxCell>
        <mxCell id="V0wX_VRdvDDfQWeRpgun-42" value="System prompts to choose &lt;b&gt;From&lt;/b&gt; account, with list of accounts already added" style="rounded=1;whiteSpace=wrap;html=1;fontSize=12;glass=0;strokeWidth=1;shadow=0;" vertex="1" parent="WIyWlLk6GJQsqaUBKTNV-1">
          <mxGeometry x="358.5" y="590" width="141.5" height="71" as="geometry" />
        </mxCell>
        <mxCell id="V0wX_VRdvDDfQWeRpgun-66" style="edgeStyle=orthogonalEdgeStyle;rounded=0;orthogonalLoop=1;jettySize=auto;html=1;exitX=1;exitY=0.5;exitDx=0;exitDy=0;endArrow=block;endFill=0;" edge="1" parent="WIyWlLk6GJQsqaUBKTNV-1" source="V0wX_VRdvDDfQWeRpgun-43" target="V0wX_VRdvDDfQWeRpgun-46">
          <mxGeometry relative="1" as="geometry" />
        </mxCell>
        <mxCell id="V0wX_VRdvDDfQWeRpgun-67" style="edgeStyle=orthogonalEdgeStyle;rounded=0;orthogonalLoop=1;jettySize=auto;html=1;exitX=0.5;exitY=1;exitDx=0;exitDy=0;entryX=0.5;entryY=0;entryDx=0;entryDy=0;endArrow=block;endFill=0;" edge="1" parent="WIyWlLk6GJQsqaUBKTNV-1" source="V0wX_VRdvDDfQWeRpgun-46" target="V0wX_VRdvDDfQWeRpgun-60">
          <mxGeometry relative="1" as="geometry" />
        </mxCell>
        <mxCell id="V0wX_VRdvDDfQWeRpgun-43" value="Customer chooses one from the list&amp;nbsp;" style="rounded=1;whiteSpace=wrap;html=1;fontSize=12;glass=0;strokeWidth=1;shadow=0;" vertex="1" parent="WIyWlLk6GJQsqaUBKTNV-1">
          <mxGeometry x="135" y="690" width="145" height="71" as="geometry" />
        </mxCell>
        <mxCell id="V0wX_VRdvDDfQWeRpgun-49" style="edgeStyle=orthogonalEdgeStyle;rounded=0;orthogonalLoop=1;jettySize=auto;html=1;endArrow=block;endFill=0;dashed=1;dashPattern=8 8;entryX=0.5;entryY=1;entryDx=0;entryDy=0;exitX=1;exitY=0.5;exitDx=0;exitDy=0;" edge="1" parent="WIyWlLk6GJQsqaUBKTNV-1" source="V0wX_VRdvDDfQWeRpgun-46" target="V0wX_VRdvDDfQWeRpgun-50">
          <mxGeometry relative="1" as="geometry">
            <mxPoint x="591.1428571428571" y="740" as="targetPoint" />
            <mxPoint x="641" y="800" as="sourcePoint" />
            <Array as="points">
              <mxPoint x="631" y="726" />
            </Array>
          </mxGeometry>
        </mxCell>
        <mxCell id="V0wX_VRdvDDfQWeRpgun-46" value="System Prompts to choose To account with list of accounts already added" style="rounded=1;whiteSpace=wrap;html=1;fontSize=12;glass=0;strokeWidth=1;shadow=0;" vertex="1" parent="WIyWlLk6GJQsqaUBKTNV-1">
          <mxGeometry x="358.5" y="690" width="141.5" height="71" as="geometry" />
        </mxCell>
        <mxCell id="V0wX_VRdvDDfQWeRpgun-50" value="Customer can opt to add new accounts with routing number and account number" style="rounded=1;whiteSpace=wrap;html=1;fontSize=12;glass=0;strokeWidth=1;shadow=0;dashed=1;" vertex="1" parent="WIyWlLk6GJQsqaUBKTNV-1">
          <mxGeometry x="560" y="590" width="141.5" height="71" as="geometry" />
        </mxCell>
        <mxCell id="V0wX_VRdvDDfQWeRpgun-61" style="edgeStyle=orthogonalEdgeStyle;rounded=0;orthogonalLoop=1;jettySize=auto;html=1;endArrow=block;endFill=0;entryX=0.5;entryY=0;entryDx=0;entryDy=0;" edge="1" parent="WIyWlLk6GJQsqaUBKTNV-1" source="V0wX_VRdvDDfQWeRpgun-60" target="V0wX_VRdvDDfQWeRpgun-62">
          <mxGeometry relative="1" as="geometry">
            <mxPoint x="205.75000000000023" y="890" as="targetPoint" />
          </mxGeometry>
        </mxCell>
        <mxCell id="V0wX_VRdvDDfQWeRpgun-60" value="System prompts for amount" style="rounded=1;whiteSpace=wrap;html=1;fontSize=12;glass=0;strokeWidth=1;shadow=0;" vertex="1" parent="WIyWlLk6GJQsqaUBKTNV-1">
          <mxGeometry x="135" y="800" width="141.5" height="40" as="geometry" />
        </mxCell>
        <mxCell id="V0wX_VRdvDDfQWeRpgun-63" style="edgeStyle=orthogonalEdgeStyle;rounded=0;orthogonalLoop=1;jettySize=auto;html=1;exitX=1;exitY=0.5;exitDx=0;exitDy=0;endArrow=block;endFill=0;entryX=0;entryY=0.5;entryDx=0;entryDy=0;" edge="1" parent="WIyWlLk6GJQsqaUBKTNV-1" source="V0wX_VRdvDDfQWeRpgun-62">
          <mxGeometry relative="1" as="geometry">
            <mxPoint x="358.5" y="900" as="targetPoint" />
          </mxGeometry>
        </mxCell>
        <mxCell id="V0wX_VRdvDDfQWeRpgun-62" value="Customer enters amount" style="rounded=1;whiteSpace=wrap;html=1;fontSize=12;glass=0;strokeWidth=1;shadow=0;" vertex="1" parent="WIyWlLk6GJQsqaUBKTNV-1">
          <mxGeometry x="135" y="880" width="141.5" height="40" as="geometry" />
        </mxCell>
        <mxCell id="V0wX_VRdvDDfQWeRpgun-65" style="edgeStyle=orthogonalEdgeStyle;rounded=0;orthogonalLoop=1;jettySize=auto;html=1;exitX=0.5;exitY=1;exitDx=0;exitDy=0;endArrow=block;endFill=0;" edge="1" parent="WIyWlLk6GJQsqaUBKTNV-1">
          <mxGeometry relative="1" as="geometry">
            <mxPoint x="429.25000000000045" y="920" as="sourcePoint" />
            <mxPoint x="429.2857142857142" y="920" as="targetPoint" />
          </mxGeometry>
        </mxCell>
        <mxCell id="V0wX_VRdvDDfQWeRpgun-71" value="" style="edgeStyle=orthogonalEdgeStyle;rounded=0;orthogonalLoop=1;jettySize=auto;html=1;endArrow=block;endFill=0;" edge="1" parent="WIyWlLk6GJQsqaUBKTNV-1" source="V0wX_VRdvDDfQWeRpgun-69" target="V0wX_VRdvDDfQWeRpgun-70">
          <mxGeometry relative="1" as="geometry" />
        </mxCell>
        <mxCell id="V0wX_VRdvDDfQWeRpgun-103" style="edgeStyle=orthogonalEdgeStyle;rounded=0;orthogonalLoop=1;jettySize=auto;html=1;entryX=0.5;entryY=0;entryDx=0;entryDy=0;endArrow=block;endFill=0;" edge="1" parent="WIyWlLk6GJQsqaUBKTNV-1" source="V0wX_VRdvDDfQWeRpgun-69" target="V0wX_VRdvDDfQWeRpgun-80">
          <mxGeometry relative="1" as="geometry" />
        </mxCell>
        <mxCell id="V0wX_VRdvDDfQWeRpgun-69" value="is&lt;br&gt;amount greater than balance" style="rhombus;whiteSpace=wrap;html=1;shadow=0;fontFamily=Helvetica;fontSize=12;align=center;strokeWidth=1;spacing=6;spacingTop=-4;" vertex="1" parent="WIyWlLk6GJQsqaUBKTNV-1">
          <mxGeometry x="320" y="843.75" width="130" height="112.5" as="geometry" />
        </mxCell>
        <mxCell id="V0wX_VRdvDDfQWeRpgun-99" style="edgeStyle=orthogonalEdgeStyle;rounded=0;orthogonalLoop=1;jettySize=auto;html=1;entryX=1;entryY=0.5;entryDx=0;entryDy=0;endArrow=block;endFill=0;exitX=0.5;exitY=1;exitDx=0;exitDy=0;" edge="1" parent="WIyWlLk6GJQsqaUBKTNV-1" source="V0wX_VRdvDDfQWeRpgun-70" target="V0wX_VRdvDDfQWeRpgun-80">
          <mxGeometry relative="1" as="geometry">
            <Array as="points">
              <mxPoint x="560" y="1040" />
            </Array>
          </mxGeometry>
        </mxCell>
        <mxCell id="V0wX_VRdvDDfQWeRpgun-104" style="edgeStyle=orthogonalEdgeStyle;rounded=0;orthogonalLoop=1;jettySize=auto;html=1;exitX=1;exitY=0.5;exitDx=0;exitDy=0;entryX=0;entryY=0.5;entryDx=0;entryDy=0;endArrow=block;endFill=0;" edge="1" parent="WIyWlLk6GJQsqaUBKTNV-1" source="V0wX_VRdvDDfQWeRpgun-70" target="V0wX_VRdvDDfQWeRpgun-75">
          <mxGeometry relative="1" as="geometry" />
        </mxCell>
        <mxCell id="V0wX_VRdvDDfQWeRpgun-70" value="is&lt;br&gt;amount &amp;gt; max lmit" style="rhombus;whiteSpace=wrap;html=1;shadow=0;fontFamily=Helvetica;fontSize=12;align=center;strokeWidth=1;spacing=6;spacingTop=-4;" vertex="1" parent="WIyWlLk6GJQsqaUBKTNV-1">
          <mxGeometry x="495" y="843.75" width="130" height="112.5" as="geometry" />
        </mxCell>
        <mxCell id="V0wX_VRdvDDfQWeRpgun-74" value="Yes" style="text;html=1;align=center;verticalAlign=middle;resizable=0;points=[];autosize=1;strokeColor=none;fillColor=none;" vertex="1" parent="WIyWlLk6GJQsqaUBKTNV-1">
          <mxGeometry x="450" y="877" width="40" height="30" as="geometry" />
        </mxCell>
        <mxCell id="V0wX_VRdvDDfQWeRpgun-105" style="edgeStyle=orthogonalEdgeStyle;rounded=0;orthogonalLoop=1;jettySize=auto;html=1;exitX=0.5;exitY=1;exitDx=0;exitDy=0;endArrow=block;endFill=0;" edge="1" parent="WIyWlLk6GJQsqaUBKTNV-1" source="V0wX_VRdvDDfQWeRpgun-75" target="V0wX_VRdvDDfQWeRpgun-87">
          <mxGeometry relative="1" as="geometry" />
        </mxCell>
        <mxCell id="V0wX_VRdvDDfQWeRpgun-75" value="System prompts for confirmation" style="rounded=1;whiteSpace=wrap;html=1;shadow=0;strokeWidth=1;spacing=6;spacingTop=-4;" vertex="1" parent="WIyWlLk6GJQsqaUBKTNV-1">
          <mxGeometry x="670" y="880" width="110" height="40" as="geometry" />
        </mxCell>
        <mxCell id="V0wX_VRdvDDfQWeRpgun-82" style="edgeStyle=orthogonalEdgeStyle;rounded=0;orthogonalLoop=1;jettySize=auto;html=1;entryX=0.5;entryY=1;entryDx=0;entryDy=0;endArrow=block;endFill=0;" edge="1" parent="WIyWlLk6GJQsqaUBKTNV-1" source="V0wX_VRdvDDfQWeRpgun-80" target="V0wX_VRdvDDfQWeRpgun-62">
          <mxGeometry relative="1" as="geometry" />
        </mxCell>
        <mxCell id="V0wX_VRdvDDfQWeRpgun-80" value="System prompts invalid message and redirects to amount page" style="whiteSpace=wrap;html=1;shadow=0;strokeWidth=1;spacing=6;spacingTop=-4;rounded=1;" vertex="1" parent="WIyWlLk6GJQsqaUBKTNV-1">
          <mxGeometry x="325" y="1010" width="120" height="60" as="geometry" />
        </mxCell>
        <mxCell id="V0wX_VRdvDDfQWeRpgun-111" style="edgeStyle=orthogonalEdgeStyle;rounded=0;orthogonalLoop=1;jettySize=auto;html=1;exitX=0.5;exitY=1;exitDx=0;exitDy=0;endArrow=block;endFill=0;" edge="1" parent="WIyWlLk6GJQsqaUBKTNV-1" source="V0wX_VRdvDDfQWeRpgun-87">
          <mxGeometry relative="1" as="geometry">
            <mxPoint x="730" y="1020" as="targetPoint" />
          </mxGeometry>
        </mxCell>
        <mxCell id="V0wX_VRdvDDfQWeRpgun-87" value="Customer confirms" style="whiteSpace=wrap;html=1;rounded=1;shadow=0;strokeWidth=1;spacing=6;spacingTop=-4;" vertex="1" parent="WIyWlLk6GJQsqaUBKTNV-1">
          <mxGeometry x="665" y="956.25" width="120" height="30" as="geometry" />
        </mxCell>
        <mxCell id="V0wX_VRdvDDfQWeRpgun-96" style="edgeStyle=orthogonalEdgeStyle;rounded=0;orthogonalLoop=1;jettySize=auto;html=1;exitX=0.5;exitY=1;exitDx=0;exitDy=0;endArrow=block;endFill=0;" edge="1" parent="WIyWlLk6GJQsqaUBKTNV-1" source="V0wX_VRdvDDfQWeRpgun-75" target="V0wX_VRdvDDfQWeRpgun-75">
          <mxGeometry relative="1" as="geometry" />
        </mxCell>
        <mxCell id="V0wX_VRdvDDfQWeRpgun-106" value="Yes" style="text;html=1;align=center;verticalAlign=middle;resizable=0;points=[];autosize=1;strokeColor=none;fillColor=none;" vertex="1" parent="WIyWlLk6GJQsqaUBKTNV-1">
          <mxGeometry x="520" y="970" width="40" height="30" as="geometry" />
        </mxCell>
        <mxCell id="V0wX_VRdvDDfQWeRpgun-107" value="No" style="text;html=1;align=center;verticalAlign=middle;resizable=0;points=[];autosize=1;strokeColor=none;fillColor=none;" vertex="1" parent="WIyWlLk6GJQsqaUBKTNV-1">
          <mxGeometry x="380" y="960" width="40" height="30" as="geometry" />
        </mxCell>
        <mxCell id="V0wX_VRdvDDfQWeRpgun-108" value="No" style="text;html=1;align=center;verticalAlign=middle;resizable=0;points=[];autosize=1;strokeColor=none;fillColor=none;" vertex="1" parent="WIyWlLk6GJQsqaUBKTNV-1">
          <mxGeometry x="625" y="900" width="40" height="30" as="geometry" />
        </mxCell>
        <mxCell id="V0wX_VRdvDDfQWeRpgun-115" style="edgeStyle=orthogonalEdgeStyle;rounded=0;orthogonalLoop=1;jettySize=auto;html=1;entryX=0.5;entryY=0;entryDx=0;entryDy=0;endArrow=block;endFill=0;" edge="1" parent="WIyWlLk6GJQsqaUBKTNV-1" source="V0wX_VRdvDDfQWeRpgun-112" target="V0wX_VRdvDDfQWeRpgun-113">
          <mxGeometry relative="1" as="geometry" />
        </mxCell>
        <mxCell id="V0wX_VRdvDDfQWeRpgun-112" value="System saves transaction details" style="whiteSpace=wrap;html=1;rounded=1;shadow=0;strokeWidth=1;spacing=6;spacingTop=-4;" vertex="1" parent="WIyWlLk6GJQsqaUBKTNV-1">
          <mxGeometry x="665" y="1020" width="115" height="40" as="geometry" />
        </mxCell>
        <mxCell id="V0wX_VRdvDDfQWeRpgun-116" style="edgeStyle=orthogonalEdgeStyle;rounded=0;orthogonalLoop=1;jettySize=auto;html=1;endArrow=block;endFill=0;" edge="1" parent="WIyWlLk6GJQsqaUBKTNV-1" source="V0wX_VRdvDDfQWeRpgun-113">
          <mxGeometry relative="1" as="geometry">
            <mxPoint x="640" y="1100" as="targetPoint" />
          </mxGeometry>
        </mxCell>
        <mxCell id="V0wX_VRdvDDfQWeRpgun-113" value="System saves transaction details" style="whiteSpace=wrap;html=1;rounded=1;shadow=0;strokeWidth=1;spacing=6;spacingTop=-4;" vertex="1" parent="WIyWlLk6GJQsqaUBKTNV-1">
          <mxGeometry x="665" y="1080" width="115" height="40" as="geometry" />
        </mxCell>
        <mxCell id="V0wX_VRdvDDfQWeRpgun-117" value="" style="shape=image;html=1;verticalAlign=top;verticalLabelPosition=bottom;labelBackgroundColor=#ffffff;imageAspect=0;aspect=fixed;image=https://cdn2.iconfinder.com/data/icons/boxicons-regular-vol-3/24/bx-stop-circle-128.png;rounded=1;dashed=1;" vertex="1" parent="WIyWlLk6GJQsqaUBKTNV-1">
          <mxGeometry x="590" y="1076" width="48" height="48" as="geometry" />
        </mxCell>
        <mxCell id="V0wX_VRdvDDfQWeRpgun-121" style="edgeStyle=orthogonalEdgeStyle;rounded=0;orthogonalLoop=1;jettySize=auto;html=1;entryX=-0.008;entryY=0.408;entryDx=0;entryDy=0;entryPerimeter=0;endArrow=block;endFill=0;" edge="1" parent="WIyWlLk6GJQsqaUBKTNV-1" source="V0wX_VRdvDDfQWeRpgun-118" target="WIyWlLk6GJQsqaUBKTNV-3">
          <mxGeometry relative="1" as="geometry" />
        </mxCell>
        <mxCell id="V0wX_VRdvDDfQWeRpgun-118" value="" style="ellipse;shape=doubleEllipse;html=1;dashed=0;whitespace=wrap;aspect=fixed;rounded=1;" vertex="1" parent="WIyWlLk6GJQsqaUBKTNV-1">
          <mxGeometry x="40" y="18" width="45" height="45" as="geometry" />
        </mxCell>
        <mxCell id="V0wX_VRdvDDfQWeRpgun-122" value="Start" style="text;html=1;align=center;verticalAlign=middle;resizable=0;points=[];autosize=1;strokeColor=none;fillColor=none;" vertex="1" parent="WIyWlLk6GJQsqaUBKTNV-1">
          <mxGeometry x="37.5" y="60" width="50" height="30" as="geometry" />
        </mxCell>
        <mxCell id="V0wX_VRdvDDfQWeRpgun-123" value="End" style="text;html=1;align=center;verticalAlign=middle;resizable=0;points=[];autosize=1;strokeColor=none;fillColor=none;" vertex="1" parent="WIyWlLk6GJQsqaUBKTNV-1">
          <mxGeometry x="598" y="1120" width="40" height="30" as="geometry" />
        </mxCell>
      </root>
    </mxGraphModel>
  </diagram>
</mxfile>
